<svg xmlns="http://www.w3.org/2000/svg" width="30.002" height="26.251" viewBox="945 2779 30.002 26.251"><g data-name="credit-card (1)"><g data-name="Group 20"><g data-name="Group 19"><path d="M974.064 2795.876a.938.938 0 0 0-.937.937v6.563h-26.252v-11.25h10.313a.938.938 0 0 0 0-1.876h-10.313v-3.75h10.313a.938.938 0 0 0 0-1.875h-10.313c-1.035 0-1.875.84-1.875 1.875v16.876c0 1.035.84 1.875 1.875 1.875h26.252c1.035 0 1.875-.84 1.875-1.875v-6.563a.938.938 0 0 0-.938-.937Z" fill-rule="evenodd" data-name="Path 12"/></g></g><g data-name="Group 22"><g data-name="Group 21"><path d="M953.438 2795.876h-3.75a.938.938 0 0 0 0 1.875h3.75a.938.938 0 0 0 0-1.875Z" fill-rule="evenodd" data-name="Path 13"/></g></g><g data-name="Group 24"><g data-name="Group 23"><path d="m974.434 2781.887-6.563-2.812a.957.957 0 0 0-.74 0l-6.564 2.812a.94.94 0 0 0-.566.863v3.75c0 5.159 1.907 8.174 7.033 11.127a.94.94 0 0 0 .934 0c5.127-2.946 7.034-5.961 7.034-11.127v-3.75a.939.939 0 0 0-.568-.863Zm-1.307 4.613c0 4.33-1.433 6.713-5.626 9.226-4.192-2.519-5.625-4.902-5.625-9.226v-3.131l5.625-2.412 5.626 2.412v3.131Z" fill-rule="evenodd" data-name="Path 14"/></g></g><g data-name="Group 26"><g data-name="Group 25"><path d="M970.901 2784.83a.944.944 0 0 0-1.318.146l-2.948 3.686-1.166-1.744a.94.94 0 0 0-1.3-.26.939.939 0 0 0-.26 1.299l1.875 2.813c.167.25.44.403.74.418h.04a.938.938 0 0 0 .733-.353l3.75-4.687a.938.938 0 0 0-.146-1.319Z" fill-rule="evenodd" data-name="Path 15"/></g></g></g></svg>