<svg xmlns="http://www.w3.org/2000/svg" width="30" height="30" viewBox="551 2777 30 30"><g data-name="customer-service"><g data-name="Group 28"><g data-name="Group 27"><path d="m575.377 2803.119-1.123-3.37a3.396 3.396 0 0 0-2.615-2.268l-3.242-.59v-.251a4.883 4.883 0 0 0 1.446-1.284h.98c.802 0 1.455-.653 1.455-1.456v-5.822a6.315 6.315 0 0 0-6.307-6.307 6.315 6.315 0 0 0-6.307 6.307v3.396c0 .936.665 1.718 1.547 1.9a4.86 4.86 0 0 0 2.334 3.266v.251l-3.243.59a3.396 3.396 0 0 0-2.614 2.268l-.194.582-1.652-1.652a.486.486 0 0 1 0-.687l1.916-1.916-3.597-3.597-2.166 2.166a3.374 3.374 0 0 0-.995 2.402c0 .907.354 1.76.995 2.4l6.557 6.558a3.375 3.375 0 0 0 2.402.995 3.36 3.36 0 0 0 2.386-.98l2.363-2.166-.737-.735h10.411Zm-4.069-9.219a.486.486 0 0 1-.485.485h-.408c.14-.32.247-.658.316-1.01.208-.043.399-.126.577-.23v.755Zm-.485-1.59v-1.671a.967.967 0 0 1 .485.835.967.967 0 0 1-.485.836Zm-9.704 0a.967.967 0 0 1-.485-.836c0-.357.197-.667.485-.835v1.67Zm0-3.262v.555a1.925 1.925 0 0 0-.485.2v-1.725a5.343 5.343 0 0 1 5.337-5.337 5.343 5.343 0 0 1 5.337 5.337v1.725a1.907 1.907 0 0 0-.485-.2v-.555h-.485a5.338 5.338 0 0 1-3.799-1.573l-.568-.568-.568.568a5.338 5.338 0 0 1-3.799 1.573h-.485Zm.97 3.397V2790a6.29 6.29 0 0 0 3.882-1.724 6.288 6.288 0 0 0 3.881 1.724v2.445c0 .707-.193 1.369-.525 1.94h-3.356v.97h2.559a3.86 3.86 0 0 1-2.559.971 3.886 3.886 0 0 1-3.881-3.881Zm5.338 4.628v.023l-1.456 1.455-1.455-1.455v-.023a4.845 4.845 0 0 0 2.91 0Zm-8.819 2.982c.28-.84.996-1.46 1.867-1.62l3.392-.616 2.104 2.104 2.104-2.103 3.39.616c.873.159 1.588.779 1.868 1.62l.698 2.092h-10.035l-1.89-1.89-2.1 1.9a.496.496 0 0 1-.686 0l-1.06-1.06.348-1.043Zm-4.448-6.204 2.225 2.225-.526.527-2.225-2.225.526-.527Zm8.508 11.469a2.414 2.414 0 0 1-1.715.71 2.413 2.413 0 0 1-1.716-.711l-6.557-6.557a2.41 2.41 0 0 1-.71-1.715c0-.648.252-1.257.71-1.715l.267-.267 2.225 2.225-.017.017a1.458 1.458 0 0 0 0 2.059l3.479 3.479c.275.275.64.426 1.03.426.388 0 .754-.15 1.01-.41l.037-.032 2.235 2.236-.278.255Zm.995-.912-2.23-2.23.64-.58 2.227 2.227-.637.583Z" fill-rule="evenodd" data-name="Path 16"/></g></g><g data-name="Group 30"><g data-name="Group 29"><path d="M579.544 2777h-6.792c-.802 0-1.456.653-1.456 1.456v3.88c0 .803.654 1.456 1.456 1.456h1.296l-.502 2.927 4.682-2.927h1.316c.803 0 1.456-.653 1.456-1.455v-3.881c0-.803-.653-1.456-1.456-1.456Zm.486 5.337a.486.486 0 0 1-.486.485h-1.594l-3.082 1.926.33-1.926h-2.446a.486.486 0 0 1-.485-.485v-3.881c0-.268.218-.486.485-.486h6.792c.268 0 .486.218.486.486v3.88Z" fill-rule="evenodd" data-name="Path 17"/></g></g><g data-name="Group 32"><g data-name="Group 31"><path d="M573.237 2778.94h5.822v.971h-5.822v-.97z" fill-rule="evenodd" data-name="Rectangle 33"/></g></g><g data-name="Group 34"><g data-name="Group 33"><path d="M573.237 2780.881h3.882v.97h-3.882v-.97z" fill-rule="evenodd" data-name="Rectangle 34"/></g></g><g data-name="Group 36"><g data-name="Group 35"><path d="M578.089 2780.881h.97v.97h-.97v-.97z" fill-rule="evenodd" data-name="Rectangle 35"/></g></g><g data-name="Group 38"><g data-name="Group 37"><path d="M565.971 2778.456c-6.34 0-11.8 4.385-13.22 10.501l-.919-1.533-.832.5 1.705 2.841 2.842-1.705-.5-.832-1.314.789a12.607 12.607 0 0 1 12.238-9.591c1.275 0 2.532.19 3.738.563l.287-.927a13.576 13.576 0 0 0-4.025-.606Z" fill-rule="evenodd" data-name="Path 18"/></g></g><g data-name="Group 40"><g data-name="Group 39"><path d="m580.764 2787.696-2.841-1.706-1.705 2.842.832.5.849-1.416c.447 1.308.675 2.676.675 4.077 0 2.886-1 5.707-2.813 7.943l.753.611a13.615 13.615 0 0 0 3.03-8.554c0-1.484-.239-2.933-.705-4.32l1.426.855.5-.832Z" fill-rule="evenodd" data-name="Path 19"/></g></g></g></svg>