<svg xmlns="http://www.w3.org/2000/svg" width="30.004" height="23.521" viewBox="1325 2780 30.004 23.521"><path d="m1354.918 2791.37-3.215-7.502a1.071 1.071 0 0 0-.985-.654h-3.215v-2.143c0-.591-.48-1.071-1.071-1.071h-20.36c-.592 0-1.072.48-1.072 1.071v18.217c0 .592.48 1.071 1.071 1.071h2.293a4.286 4.286 0 0 0 8.273 0h6.73a4.286 4.286 0 0 0 8.272 0h2.293c.592 0 1.072-.48 1.072-1.07v-7.502c0-.144-.03-.286-.087-.418Zm-7.415-6.012h2.508l2.293 5.357h-4.801v-5.357Zm-15.002 16.074a2.144 2.144 0 1 1 0-4.287 2.144 2.144 0 0 1 0 4.287Zm10.865-3.215h-6.73a4.286 4.286 0 0 0-8.272 0h-1.221v-16.074h18.217v13.46a4.286 4.286 0 0 0-1.993 2.614Zm4.137 3.215a2.144 2.144 0 1 1 0-4.287 2.144 2.144 0 0 1 0 4.287Zm5.358-3.215h-1.222a4.286 4.286 0 0 0-4.136-3.215v-2.144h5.358v5.359Z" fill-rule="evenodd" data-name="delivery-truck"/></svg>